<svg id="question" xmlns="http://www.w3.org/2000/svg" width="18" height="18" viewBox="0 0 18 18">
  <defs>
    <style>
      .cls-1 {
        fill: #e5e5e5;
      }

      .cls-2 {
        fill: #fff;
        fill-rule: evenodd;
      }
    </style>
  </defs>
  <circle id="Эллипс_1_копия" data-name="Эллипс 1 копия" class="cls-1" cx="9" cy="9" r="9"/>
  <path id="_копия" data-name="? копия" class="cls-2" d="M1646.69,1218.89a3.754,3.754,0,0,1,.03-0.54,1.43,1.43,0,0,1,.19-0.48,1.789,1.789,0,0,1,.25-0.31,3.125,3.125,0,0,1,.32-0.3,5.253,5.253,0,0,0,1.04-1.3,2.387,2.387,0,0,0,.27-1.13,2.331,2.331,0,0,0-.15-0.82,2.052,2.052,0,0,0-.41-0.7,2.149,2.149,0,0,0-.97-0.68,3.944,3.944,0,0,0-1.25-.2,2.9,2.9,0,0,0-.86.13,2.612,2.612,0,0,0-.77.37,2.238,2.238,0,0,0-.7.82,3.032,3.032,0,0,0-.33,1.12h1.52a1.4,1.4,0,0,1,.08-0.47,0.919,0.919,0,0,1,.27-0.35,1.056,1.056,0,0,1,.38-0.2,1.78,1.78,0,0,1,.47-0.06,1.686,1.686,0,0,1,.56.09,0.923,0.923,0,0,1,.43.32,0.537,0.537,0,0,1,.15.3,1.5,1.5,0,0,1,.05.37,2.012,2.012,0,0,1-.08.57,1.316,1.316,0,0,1-.33.54,5.954,5.954,0,0,1-.54.51,4.287,4.287,0,0,0-.45.38,1.841,1.841,0,0,0-.36.5,2.474,2.474,0,0,0-.26.72,3.561,3.561,0,0,0-.08.8h1.53Zm0,2.35v-1.59h-1.52v1.59h1.52Z" transform="translate(-1637 -1208)"/>
</svg>
