<?xml version="1.0" encoding="utf-8"?>
<!-- Generator: Adobe Illustrator 19.0.1, SVG Export Plug-In . SVG Version: 6.00 Build 0)  -->
<svg version="1.1" id="Слой_1" xmlns="http://www.w3.org/2000/svg" xmlns:xlink="http://www.w3.org/1999/xlink" x="0px" y="0px"
	 viewBox="0 0 100 100" style="enable-background:new 0 0 100 100;" xml:space="preserve">
<style type="text/css">
	.st0{fill:#FFFFFF;}
</style>
<g>
	<path class="st0" d="M13.8,1.3h72.4c6.9,0,12.5,5.1,12.5,12.5v72.4c0,7.4-5.6,12.5-12.5,12.5H13.8c-6.9,0-12.5-5.1-12.5-12.5V13.8
		C1.3,6.4,6.9,1.3,13.8,1.3L13.8,1.3z M72.3,12.1c-2.4,0-4.4,2-4.4,4.4V27c0,2.4,2,4.4,4.4,4.4h11c2.4,0,4.4-2,4.4-4.4V16.5
		c0-2.4-2-4.4-4.4-4.4H72.3L72.3,12.1z M87.7,42.5h-8.6c0.8,2.6,1.3,5.5,1.3,8.4c0,16.2-13.6,29.3-30.3,29.3
		c-16.7,0-30.3-13.1-30.3-29.3c0-2.9,0.4-5.7,1.3-8.4h-8.9v41.1c0,2.1,1.7,3.9,3.9,3.9h67.8c2.1,0,3.9-1.7,3.9-3.9L87.7,42.5
		L87.7,42.5z M50.1,30.8c-10.8,0-19.6,8.5-19.6,19s8.8,19,19.6,19c10.8,0,19.6-8.5,19.6-19S60.9,30.8,50.1,30.8z"/>
</g>
</svg>
