<?xml version="1.0" encoding="utf-8"?>
<!-- Generator: Adobe Illustrator 19.0.1, SVG Export Plug-In . SVG Version: 6.00 Build 0)  -->
<svg version="1.1" id="Слой_1" xmlns="http://www.w3.org/2000/svg" xmlns:xlink="http://www.w3.org/1999/xlink" x="0px" y="0px"
	 viewBox="0 0 100 100" style="enable-background:new 0 0 100 100;" xml:space="preserve">
<style type="text/css">
	.st0{fill:#FFFFFF;}
</style>
<path class="st0" d="M49.5,5c-18.5,0-31.4,0.1-38,6.5C5.1,18.1,5,31.6,5,49.5c19.9-0.6,29-1.1,36.3-8.2C48.4,34,48.9,24.9,49.5,5z
	 M11.5,88.5C5.1,81.9,5,68.4,5,50.5c19.9,0.6,29,1.1,36.3,8.2c7.1,7.3,7.6,16.4,8.2,36.3C31,95,18.1,94.9,11.5,88.5z M50.5,95
	c0.6-19.9,1.1-29,8.2-36.3c7.3-7.1,16.4-7.6,36.3-8.2c0,17.9-0.1,31.4-6.5,38C81.9,94.9,69,95,50.5,95z M50.5,5
	c0.6,19.9,1.1,29,8.2,36.3c7.3,7.1,16.4,7.6,36.3,8.2c0-17.9-0.1-31.4-6.5-38C81.9,5.1,69,5,50.5,5z"/>
</svg>
