<svg xmlns="http://www.w3.org/2000/svg" width="20" height="10" viewBox="0 0 20 10">
  <defs>
    <style>
      .cls-1 {
        fill: #fff;
        fill-rule: evenodd;
      }
    </style>
  </defs>
  <path id="arrow_right" class="cls-1" d="M1490.8,435.682l1.42,1.484a0.492,0.492,0,0,1-.36.836h-15.03a0.873,0.873,0,0,0-.84,1V439a0.879,0.879,0,0,0,.84,1.009h15.01a0.5,0.5,0,0,1,.36.856l-1.41,1.459a0.98,0.98,0,0,0,.04,1.411v0a1.007,1.007,0,0,0,1.41-.044l3.2-3.341a1.988,1.988,0,0,0,0-2.756l-3.18-3.282a1,1,0,0,0-1.4-.042l-0.01.009A0.979,0.979,0,0,0,1490.8,435.682Z" transform="translate(-1476 -434)"/>
</svg>
