<?xml version="1.0" encoding="utf-8"?>
<!-- Generator: Adobe Illustrator 19.0.1, SVG Export Plug-In . SVG Version: 6.00 Build 0)  -->
<svg version="1.1" id="Слой_1" xmlns="http://www.w3.org/2000/svg" xmlns:xlink="http://www.w3.org/1999/xlink" x="0px" y="0px"
	 viewBox="0 0 580 580" style="enable-background:new 0 0 580 580;" xml:space="preserve">
<style type="text/css">
	.st0{fill:url(#Фигура_1_копия_1_);}
	.st1{opacity:0.5;fill:#1FCCCC;enable-background:new    ;}
	.st2{opacity:0.2;fill:#1040AD;enable-background:new    ;}
	.st3{fill:#1040AD;}
</style>
<linearGradient id="Фигура_1_копия_1_" gradientUnits="userSpaceOnUse" x1="2206.6072" y1="1700.4681" x2="1678.6113" y2="1172.4722" gradientTransform="matrix(1 0 0 1 -1681.72 -1126.476)">
	<stop  offset="0" style="stop-color:#1040AD"/>
	<stop  offset="1" style="stop-color:#1FCCCC"/>
</linearGradient>
<path id="Фигура_1_копия" class="st0" d="M308.4,537.1c265.3-42.2,349.8-154.4,186.3-377.5S234-3.2,81.6,190.4
	S-9.8,587.7,308.4,537.1z"/>
<path id="Фигура_1_копия_2" class="st1" d="M175.5,514.4c23.5,9.2,45.9,17.2,67.3,24c164.8-11,244.3-40.4,292.5-88.6
	c8.4-38.2,8-86.5,0.3-145.5c-35-265.5-153.4-266.8-389.5-188.4c-1,0.3-2,0.7-3,1C59.2,229.6-6.4,289.9,3.8,409.5
	C39.6,447.1,95.9,483.1,175.5,514.4z"/>
<path id="Фигура_1" class="st2" d="M251.9,82c-236.4,77.1-297.4,192.5-116,374s261.6,112.1,373-88S535.4-10.5,251.9,82z"/>
<path id="Фигура_1_копия_3" class="st3" d="M241.9,84C5.5,161.1-55.5,276.5,125.9,458s261.6,112.1,373-88
	S525.4-8.5,241.9,84z"/>
</svg>
