<?xml version="1.0" encoding="utf-8"?>
<!-- Generator: Adobe Illustrator 19.0.1, SVG Export Plug-In . SVG Version: 6.00 Build 0)  -->
<svg version="1.1" id="Слой_1" xmlns="http://www.w3.org/2000/svg" xmlns:xlink="http://www.w3.org/1999/xlink" x="0px" y="0px"
	 viewBox="0 0 500 500" style="enable-background:new 0 0 500 500;" xml:space="preserve">
<style type="text/css">
	.st0{fill:url(#Фигура_8_1_);}
	.st1{fill:url(#Фигура_8_копия_1_);}
	.st2{opacity:0.2;fill:#1FCCCC;enable-background:new    ;}
</style>
<linearGradient id="Фигура_8_1_" gradientUnits="userSpaceOnUse" x1="2186.6787" y1="5131.0391" x2="1768.1787" y2="4712.5396" gradientTransform="matrix(1 0 0 1 -1754.63 -4654.8101)">
	<stop  offset="0" style="stop-color:#1040AD"/>
	<stop  offset="1" style="stop-color:#1FCCCC"/>
</linearGradient>
<path id="Фигура_8" class="st0" d="M84.2,133.4c-149.3,136.2-35.7,379.8,99,300c154.1-91.3,414.9-48.2,251-257
	S218.8,10.6,84.2,133.4z"/>
<linearGradient id="Фигура_8_копия_1_" gradientUnits="userSpaceOnUse" x1="2143.7358" y1="5091.7163" x2="1812.7068" y2="4760.6875" gradientTransform="matrix(1 0 0 1 -1754.63 -4654.8101)">
	<stop  offset="0" style="stop-color:#1040AD"/>
	<stop  offset="1" style="stop-color:#1FCCCC"/>
</linearGradient>
<path id="Фигура_8_копия" class="st1" d="M336.4,377.1c115.9-103.4,41.2-296.6-70.8-242.5
	c-77.2,37.3-180.8,34.6-229.9,62.2c-13.8,26-18.6,48.6-21.1,76.4c5.6,15.1,15,32.8,28.6,53.6c42.7,65.1,75.9,102.8,106.3,120.2
	C258.3,399.6,323.3,381.3,336.4,377.1z"/>
<path id="Фигура_9" class="st2" d="M256.8,76.9C51.4,26.5-48.8,168.2,95.6,339.6s229.1,174.5,325.9,1.1
	S502.6,137.2,256.8,76.9z"/>
</svg>
