<?xml version="1.0" encoding="utf-8"?>
<!-- Generator: Adobe Illustrator 19.0.1, SVG Export Plug-In . SVG Version: 6.00 Build 0)  -->
<svg version="1.1" id="Слой_1" xmlns="http://www.w3.org/2000/svg" xmlns:xlink="http://www.w3.org/1999/xlink" x="0px" y="0px"
	 viewBox="0 0 512 512" style="enable-background:new 0 0 512 512;" xml:space="preserve">
<style type="text/css">
	.st0{fill:url(#SVGID_1_);}
</style>
<g>
	<g>
		
			<linearGradient id="SVGID_1_" gradientUnits="userSpaceOnUse" x1="0" y1="258" x2="512" y2="258" gradientTransform="matrix(1 0 0 -1 0 514)">
			<stop  offset="0" style="stop-color:#1040AD"/>
			<stop  offset="1" style="stop-color:#1FCCCC"/>
		</linearGradient>
		<path class="st0" d="M492,350.5c11,0,20-9,20-20v-122c0-44.1-35.9-80-80-80h-44.8c5.5-20.7,8.8-40.3,8.8-52c0-41.9-34.1-76-76-76
			s-76,34.1-76,76c0,11.7,3.4,31.3,8.8,52H208c-44.1,0-80,35.9-80,80v31.8c-20.7-5.5-40.3-8.8-52-8.8c-41.9,0-76,34.1-76,76
			s34.1,76,76,76c11.1,0,30.5-2.5,52-7.9v55.9c0,44.1,35.9,80,80,80h58c9.6,0,18.3-4.4,24-12.1c5.6-7.6,7.4-17.5,4.7-26.6
			c-7.8-26.2-10.7-46.6-10.7-53.4c0-19.9,16.1-36,36-36s36,16.1,36,36c0,6.7-2.9,27.2-10.7,53.4c-2.7,9.1-0.9,19,4.7,26.6
			c5.7,7.7,14.5,12.1,24,12.1h58c44.1,0,80-35.9,80-80c0-11-9-20-20-20s-20,9-20,20c0,22.1-17.9,40-40,40h-44.8
			c5.5-20.7,8.8-40.3,8.8-52c0-41.9-34.1-76-76-76s-76,34.1-76,76c0,11.7,3.4,31.3,8.8,52H208c-22.1,0-40-17.9-40-40v-69
			c0-9.6-4.4-18.3-12.1-24c-7.6-5.6-17.5-7.4-26.6-4.7c-23.9,7.1-45,9.7-53.4,9.7c-19.9,0-36-16.1-36-36s16.1-36,36-36
			c6.7,0,27.2,2.9,53.4,10.7c9.1,2.7,19,0.9,26.6-4.7c7.7-5.7,12.1-14.5,12.1-24v-45c0-22.1,17.9-40,40-40h58
			c9.6,0,18.3-4.4,24-12.1c5.6-7.6,7.4-17.5,4.7-26.6c-7.8-26.2-10.7-46.6-10.7-53.4c0-19.9,16.1-36,36-36s36,16.1,36,36
			c0,6.7-2.9,27.2-10.7,53.4c-2.7,9.1-0.9,19,4.7,26.6c5.7,7.7,14.5,12.1,24,12.1h58c22.1,0,40,17.9,40,40v122
			C472,341.5,481,350.5,492,350.5z"/>
	</g>
</g>
</svg>
