<?xml version="1.0" encoding="utf-8"?>
<!-- Generator: Adobe Illustrator 19.0.1, SVG Export Plug-In . SVG Version: 6.00 Build 0)  -->
<svg version="1.1" id="Слой_1" xmlns="http://www.w3.org/2000/svg" xmlns:xlink="http://www.w3.org/1999/xlink" x="0px" y="0px"
	 viewBox="0 0 200 100" style="enable-background:new 0 0 200 100;" xml:space="preserve">
<style type="text/css">
	.st0{fill:#1040AD;}
	.st1{fill:url(#SVGID_1_);}
	.st2{fill:url(#SVGID_2_);}
</style>
<g>
	<g>
		<path class="st0" d="M101.1,41.7V44h-1.2v-1.1h-7.4v-9.1h1.2v7.9h5v-7.9h1.2v7.9H101.1z"/>
		<path class="st0" d="M103.9,41.2c0.4,0.5,0.9,0.7,1.5,0.7c0.6,0,1.2-0.2,1.5-0.7c0.1-0.1,0.1-0.2,0.2-0.3l1.2,0.5
			c-0.1,0.2-0.2,0.4-0.4,0.6c-0.6,0.7-1.6,1.1-2.6,1.1c-1,0-1.9-0.4-2.5-1.1c-0.6-0.7-0.8-1.6-0.8-2.5c0-0.9,0.2-1.8,0.8-2.5
			c0.6-0.7,1.5-1.1,2.5-1.1c1,0,1.9,0.4,2.5,1.1c0.6,0.7,0.8,1.6,0.8,2.5c0,0.1,0,0.2,0,0.3h-5.3C103.4,40.3,103.6,40.8,103.9,41.2z
			 M103.9,37.7c-0.2,0.3-0.4,0.7-0.4,1.1h3.9c-0.1-0.4-0.2-0.8-0.4-1.1c-0.4-0.5-0.9-0.7-1.5-0.7C104.8,37,104.2,37.2,103.9,37.7z"
			/>
		<path class="st0" d="M116,36v6.8h-1.2v-3h-3.5v3h-1.2V36h1.2v2.6h3.5V36H116z"/>
		<path class="st0" d="M123.2,37.1h-2.4v5.7h-1.2v-5.7h-2.4V36h5.9V37.1z"/>
		<path class="st0" d="M130.9,39.5c0,0.9-0.2,1.8-0.8,2.5c-0.6,0.7-1.4,1.1-2.4,1.1c-0.8,0-1.5-0.3-2.1-0.8v3.6h-1.2V36h1.1v0.7
			c0.6-0.6,1.4-0.9,2.2-0.9c0.9,0,1.8,0.4,2.4,1.1C130.6,37.6,130.9,38.6,130.9,39.5z M129.5,39.5c0-0.7-0.1-1.3-0.5-1.8
			c-0.4-0.5-0.9-0.7-1.6-0.7c-0.6,0-1.2,0.2-1.5,0.7c-0.4,0.5-0.5,1.1-0.5,1.8c0,0.7,0.2,1.4,0.5,1.8c0.4,0.4,0.9,0.7,1.5,0.7
			c0.6,0,1.2-0.2,1.5-0.7C129.4,40.8,129.5,40.1,129.5,39.5z"/>
		<path class="st0" d="M95.6,49.6c0.6,0,1.1,0.2,1.5,0.5c0.4,0.4,0.7,0.9,0.7,1.4c0,0.4-0.1,0.7-0.3,1.1c-0.1,0.1-0.2,0.2-0.2,0.3
			c0.2,0.2,0.4,0.3,0.5,0.5c0.2,0.3,0.4,0.7,0.4,1.1c0,0.6-0.3,1.1-0.7,1.5c-0.4,0.3-0.9,0.5-1.3,0.5h-3.9v-6.8L95.6,49.6z
			 M93.5,52.6h2.1c0.3,0,0.5-0.1,0.7-0.3c0.1-0.2,0.2-0.4,0.2-0.6c0-0.2-0.1-0.4-0.2-0.6c-0.2-0.2-0.4-0.4-0.7-0.4h-2.1V52.6z
			 M93.5,55.5h2.4c0.3,0,0.5-0.1,0.7-0.3c0.2-0.2,0.2-0.4,0.2-0.7c0-0.2-0.1-0.5-0.2-0.6c-0.2-0.3-0.5-0.3-0.8-0.3h-2.3V55.5z"/>
		<path class="st0" d="M99.9,55.6c-0.6-0.7-0.8-1.6-0.8-2.5c0-0.9,0.2-1.8,0.8-2.5c0.6-0.7,1.5-1.1,2.5-1.1c1,0,1.9,0.4,2.5,1.1
			c0.6,0.7,0.8,1.6,0.8,2.5c0,0.9-0.2,1.8-0.8,2.5c-0.6,0.8-1.5,1.1-2.5,1.1C101.5,56.7,100.5,56.3,99.9,55.6z M104.5,53.1
			c0-0.6-0.1-1.3-0.5-1.8c-0.4-0.5-0.9-0.7-1.6-0.7c-0.6,0-1.2,0.2-1.5,0.7c-0.4,0.5-0.5,1.1-0.5,1.8c0,0.6,0.1,1.3,0.5,1.7
			c0.3,0.5,0.9,0.7,1.5,0.7c0.6,0,1.2-0.2,1.6-0.7C104.4,54.3,104.5,53.7,104.5,53.1z"/>
		<path class="st0" d="M108,49.8c0.5-0.3,1.2-0.4,1.8-0.4c0.6,0,1.3,0.1,1.7,0.4c0.7,0.4,1.1,1,1.1,1.7c0,0.6-0.2,1-0.6,1.4
			c0.5,0.4,0.7,0.9,0.7,1.6c0,0.8-0.5,1.5-1.1,1.8c-0.6,0.3-1.2,0.4-1.9,0.4c-0.6,0-1.3-0.1-1.9-0.4c-0.6-0.3-1-0.8-1.1-1.4l1.2-0.3
			c0.1,0.3,0.2,0.5,0.5,0.7c0.3,0.2,0.8,0.3,1.2,0.3s0.9-0.1,1.2-0.3c0.3-0.2,0.5-0.5,0.5-0.8c0-0.5-0.2-0.7-0.7-0.8
			c-0.3-0.1-0.7-0.1-1-0.1h-0.6v-1h0.6c0.3,0,0.7,0,1-0.1c0.5-0.2,0.6-0.4,0.6-0.8c0-0.3-0.2-0.6-0.5-0.7c-0.3-0.2-0.7-0.3-1.1-0.3
			c-0.4,0-0.8,0.1-1.1,0.3c-0.3,0.2-0.4,0.3-0.4,0.6l-1.2-0.3C107.1,50.5,107.5,50.1,108,49.8z"/>
		<path class="st0" d="M121.3,49.6l0,6.8h-1.2v-4.2l-2,3.3h-0.8l-2-3.3v4.2h-1.2v-6.8h1.1l2.5,4.2l2.5-4.2H121.3z"/>
		<path class="st0" d="M124.5,54.8c0.4,0.5,0.9,0.7,1.5,0.7c0.6,0,1.2-0.2,1.5-0.7c0.1-0.1,0.1-0.2,0.2-0.3L129,55
			c-0.1,0.2-0.2,0.4-0.4,0.6c-0.6,0.7-1.6,1.1-2.6,1.1c-1,0-1.9-0.4-2.5-1.1c-0.6-0.7-0.8-1.6-0.8-2.5c0-0.9,0.2-1.8,0.8-2.5
			c0.6-0.7,1.5-1.1,2.5-1.1c1,0,1.9,0.4,2.5,1.1c0.6,0.7,0.8,1.6,0.8,2.5c0,0.1,0,0.2,0,0.3H124C124,53.9,124.2,54.4,124.5,54.8z
			 M124.5,51.3c-0.2,0.3-0.4,0.7-0.4,1.1h3.9c-0.1-0.4-0.2-0.8-0.4-1.1c-0.4-0.5-0.9-0.7-1.5-0.7C125.4,50.6,124.8,50.9,124.5,51.3z
			"/>
		<path class="st0" d="M139.6,55.3v2.3h-1.2v-1.1h-7.6v-6.8h1.1v5.6h2.2v-5.6h1.1v5.6h2.2v-5.6h1.1v5.6H139.6z"/>
		<path class="st0" d="M142.4,54.8c0.4,0.5,0.9,0.7,1.5,0.7c0.6,0,1.2-0.2,1.5-0.7c0.1-0.1,0.1-0.2,0.2-0.3l1.2,0.5
			c-0.1,0.2-0.2,0.4-0.4,0.6c-0.6,0.7-1.6,1.1-2.6,1.1c-1,0-1.9-0.4-2.5-1.1c-0.6-0.7-0.8-1.6-0.8-2.5c0-0.9,0.2-1.8,0.8-2.5
			c0.6-0.7,1.5-1.1,2.5-1.1c1,0,1.9,0.4,2.5,1.1c0.6,0.7,0.8,1.6,0.8,2.5c0,0.1,0,0.2,0,0.3h-5.3C141.9,53.9,142.1,54.4,142.4,54.8z
			 M142.4,51.3c-0.2,0.3-0.4,0.7-0.4,1.1h3.9c-0.1-0.4-0.2-0.8-0.4-1.1c-0.4-0.5-0.9-0.7-1.5-0.7C143.3,50.6,142.7,50.9,142.4,51.3z
			"/>
		<path class="st0" d="M154.5,49.6v6.8h-1.2v-3h-3.5v3h-1.2v-6.8h1.2v2.6h3.5v-2.6H154.5z"/>
		<path class="st0" d="M162.1,56.5h-1.2v-4.9l-3.5,4.9h-1.1v-6.8h1.2v4.8l3.5-4.8h1.1V56.5z"/>
		<path class="st0" d="M168.1,56.5v-2.4h-2l-1.2,2.4h-1.4l1.3-2.6c-0.2-0.1-0.5-0.2-0.6-0.4c-0.4-0.4-0.6-1-0.6-1.6s0.2-1.2,0.6-1.6
			c0.4-0.4,1-0.6,1.6-0.6h3.6l0,6.8H168.1z M168.1,52.9v-2.1h-2.3c-0.3,0-0.5,0.1-0.7,0.3c-0.2,0.2-0.3,0.4-0.3,0.7
			c0,0.3,0.1,0.5,0.3,0.7c0.2,0.2,0.4,0.3,0.7,0.3H168.1z"/>
		<path class="st0" d="M95.5,63.3c0.6,0,1.1,0.2,1.5,0.5c0.4,0.4,0.7,0.9,0.7,1.4c0,0.4-0.1,0.7-0.3,1.1c-0.1,0.1-0.2,0.2-0.2,0.3
			c0.2,0.2,0.4,0.3,0.5,0.5c0.2,0.3,0.4,0.7,0.4,1.1c0,0.6-0.3,1.1-0.7,1.5c-0.4,0.3-0.9,0.5-1.3,0.5h-3.9v-6.8L95.5,63.3z
			 M93.4,66.2h2.1c0.3,0,0.5-0.1,0.7-0.3c0.1-0.2,0.2-0.4,0.2-0.6c0-0.2-0.1-0.4-0.2-0.6c-0.2-0.2-0.4-0.4-0.7-0.4h-2.1V66.2z
			 M93.4,69.1h2.4c0.3,0,0.5-0.1,0.7-0.3c0.2-0.2,0.2-0.4,0.2-0.7c0-0.2-0.1-0.5-0.2-0.6c-0.2-0.3-0.5-0.3-0.8-0.3h-2.3V69.1z"/>
		<path class="st0" d="M105.9,66.7c0,0.9-0.2,1.8-0.8,2.5c-0.6,0.7-1.4,1.1-2.4,1.1c-0.8,0-1.5-0.3-2.1-0.8v3.6h-1.2v-9.9h1.1V64
			c0.6-0.6,1.4-0.9,2.2-0.9c0.9,0,1.8,0.4,2.4,1.1C105.7,64.8,105.9,65.8,105.9,66.7z M104.6,66.7c0-0.7-0.1-1.3-0.5-1.8
			c-0.4-0.5-0.9-0.7-1.6-0.7c-0.6,0-1.2,0.2-1.5,0.7c-0.4,0.5-0.5,1.1-0.5,1.8c0,0.7,0.2,1.4,0.5,1.8c0.4,0.4,0.9,0.7,1.5,0.7
			c0.6,0,1.2-0.2,1.5-0.7C104.5,68,104.6,67.3,104.6,66.7z"/>
		<path class="st0" d="M108.7,68.4c0.4,0.5,0.9,0.7,1.5,0.7c0.6,0,1.2-0.2,1.5-0.7c0.1-0.1,0.1-0.2,0.2-0.3l1.2,0.5
			c-0.1,0.2-0.2,0.4-0.4,0.6c-0.6,0.7-1.6,1.1-2.6,1.1c-1,0-1.9-0.4-2.5-1.1c-0.6-0.7-0.8-1.6-0.8-2.5c0-0.9,0.2-1.8,0.8-2.5
			c0.6-0.7,1.5-1.1,2.5-1.1c1,0,1.9,0.4,2.5,1.1c0.6,0.7,0.8,1.6,0.8,2.5c0,0.1,0,0.2,0,0.3h-5.3C108.3,67.5,108.4,68,108.7,68.4z
			 M108.7,64.9c-0.2,0.3-0.4,0.7-0.4,1.1h3.9c-0.1-0.4-0.2-0.8-0.4-1.1c-0.4-0.5-0.9-0.7-1.5-0.7C109.6,64.2,109,64.5,108.7,64.9z"
			/>
		<path class="st0" d="M120.8,68.9h0.6V71h-1.2v-0.9h-4.7V71h-1.2v-2.1c0.5,0,1.2-0.5,1.4-2.3l0.4-3.4h4.7V68.9z M119.6,64.4h-2.5
			l-0.3,2.4c-0.1,1-0.3,1.7-0.7,2.2h3.5V64.4z"/>
		<path class="st0" d="M122.8,64.5l0.2-0.3c0.6-0.8,1.5-1.2,2.6-1.2c1.3,0,2.3,0.4,2.8,1.5c0.2,0.4,0.3,0.9,0.3,1.3v4.3h-1.1v-1.3
			c-0.2,0.5-0.7,0.9-1.1,1.1c-0.5,0.3-1.1,0.4-1.7,0.4c-0.7,0-1.4-0.4-1.8-0.9c-0.3-0.4-0.4-0.8-0.4-1.3c0-0.7,0.4-1.4,1-1.8
			c0.7-0.4,1.4-0.5,2.5-0.6l1.3-0.2c-0.1-0.4-0.2-0.7-0.5-0.9c-0.4-0.3-0.8-0.4-1.3-0.4c-0.6,0-1.1,0.2-1.4,0.6
			c-0.1,0.1-0.1,0.1-0.2,0.2L122.8,64.5z M125.9,66.8c-1,0.2-2.1,0.3-2.1,1.2c0,0.6,0.5,1.1,1.2,1.1c0.9,0,1.9-0.4,2.3-1.3
			c0.2-0.5,0.2-0.9,0.2-1.3C127.1,66.6,126.6,66.7,125.9,66.8z"/>
		<path class="st0" d="M133.9,63.4c0.5-0.3,1.2-0.4,1.8-0.4c0.6,0,1.3,0.1,1.7,0.4c0.7,0.4,1.1,1,1.1,1.7c0,0.6-0.2,1-0.6,1.4
			c0.5,0.4,0.7,0.9,0.7,1.6c0,0.8-0.5,1.5-1.1,1.8c-0.6,0.3-1.2,0.4-1.9,0.4c-0.6,0-1.3-0.1-1.9-0.4c-0.6-0.3-1-0.8-1.1-1.4l1.2-0.3
			c0.1,0.3,0.2,0.5,0.5,0.7c0.3,0.2,0.8,0.3,1.2,0.3c0.5,0,0.9-0.1,1.2-0.3c0.3-0.2,0.5-0.5,0.5-0.8c0-0.5-0.2-0.7-0.7-0.9
			c-0.3-0.1-0.7-0.1-1-0.1H135v-1h0.6c0.3,0,0.7,0,1-0.1c0.5-0.2,0.6-0.4,0.6-0.8c0-0.3-0.2-0.6-0.5-0.7c-0.3-0.2-0.7-0.3-1.1-0.3
			c-0.4,0-0.8,0.1-1.1,0.3c-0.3,0.2-0.4,0.3-0.4,0.6l-1.2-0.3C133,64.1,133.4,63.7,133.9,63.4z"/>
		<path class="st0" d="M145.9,68.9h0.6V71h-1.2v-0.9h-4.7V71h-1.2v-2.1c0.5,0,1.2-0.5,1.4-2.3l0.4-3.4h4.7V68.9z M144.7,64.4h-2.5
			l-0.3,2.4c-0.1,1-0.3,1.7-0.7,2.2h3.5V64.4z"/>
		<path class="st0" d="M148.4,69.2c-0.6-0.7-0.8-1.6-0.8-2.5c0-0.9,0.2-1.8,0.8-2.5c0.6-0.7,1.5-1.1,2.5-1.1c1,0,1.9,0.4,2.5,1.1
			c0.6,0.7,0.8,1.6,0.8,2.5c0,0.9-0.2,1.8-0.8,2.5c-0.6,0.8-1.5,1.1-2.5,1.1C150,70.3,149,69.9,148.4,69.2z M153,66.7
			c0-0.6-0.1-1.3-0.5-1.8c-0.4-0.5-0.9-0.7-1.6-0.7c-0.6,0-1.2,0.2-1.5,0.7c-0.4,0.5-0.5,1.1-0.5,1.8c0,0.6,0.1,1.3,0.5,1.7
			c0.3,0.5,0.9,0.7,1.5,0.7c0.6,0,1.2-0.2,1.6-0.7C152.9,67.9,153,67.3,153,66.7z"/>
		<path class="st0" d="M162.1,66.7c0,0.9-0.2,1.8-0.8,2.5c-0.6,0.7-1.4,1.1-2.4,1.1c-0.8,0-1.5-0.3-2.1-0.8v3.6h-1.2v-9.9h1.1V64
			c0.6-0.6,1.4-0.9,2.2-0.9c0.9,0,1.8,0.4,2.4,1.1C161.9,64.8,162.1,65.8,162.1,66.7z M160.8,66.7c0-0.7-0.1-1.3-0.5-1.8
			c-0.4-0.5-0.9-0.7-1.6-0.7c-0.6,0-1.2,0.2-1.5,0.7c-0.4,0.5-0.5,1.1-0.5,1.8c0,0.7,0.2,1.4,0.5,1.8c0.4,0.4,0.9,0.7,1.5,0.7
			c0.6,0,1.2-0.2,1.5-0.7C160.7,68,160.8,67.3,160.8,66.7z"/>
		<path class="st0" d="M164,69.2c-0.6-0.7-0.8-1.6-0.8-2.5c0-0.9,0.2-1.8,0.8-2.5c0.6-0.7,1.5-1.1,2.5-1.1c1,0,1.9,0.4,2.5,1.1
			c0.6,0.7,0.8,1.6,0.8,2.5c0,0.9-0.2,1.8-0.8,2.5c-0.6,0.8-1.5,1.1-2.5,1.1C165.5,70.3,164.6,69.9,164,69.2z M168.5,66.7
			c0-0.6-0.1-1.3-0.5-1.8c-0.4-0.5-0.9-0.7-1.6-0.7c-0.6,0-1.2,0.2-1.5,0.7c-0.4,0.5-0.5,1.1-0.5,1.8c0,0.6,0.1,1.3,0.5,1.7
			c0.3,0.5,0.9,0.7,1.5,0.7c0.6,0,1.2-0.2,1.6-0.7C168.4,67.9,168.5,67.3,168.5,66.7z"/>
		<path class="st0" d="M174.6,63.3c0.6,0,1.1,0.2,1.5,0.5c0.4,0.4,0.7,0.9,0.7,1.4c0,0.4-0.1,0.7-0.3,1.1c-0.1,0.1-0.2,0.2-0.2,0.3
			c0.2,0.2,0.4,0.3,0.5,0.5c0.2,0.3,0.4,0.7,0.4,1.1c0,0.6-0.3,1.1-0.7,1.5c-0.4,0.3-0.9,0.5-1.3,0.5h-3.9v-6.8L174.6,63.3z
			 M172.5,66.2h2.1c0.3,0,0.5-0.1,0.7-0.3c0.1-0.2,0.2-0.4,0.2-0.6c0-0.2-0.1-0.4-0.2-0.6c-0.2-0.2-0.4-0.4-0.7-0.4h-2.1V66.2z
			 M172.5,69.1h2.4c0.3,0,0.5-0.1,0.7-0.3c0.2-0.2,0.2-0.4,0.2-0.7c0-0.2-0.1-0.5-0.2-0.6c-0.2-0.3-0.5-0.3-0.8-0.3h-2.3V69.1z"/>
		<path class="st0" d="M179.7,63.3v2.4h2c0.6,0,1.1,0.2,1.6,0.6c0.4,0.4,0.6,1,0.6,1.6c0,0.6-0.2,1.2-0.6,1.6
			c-0.4,0.4-1,0.6-1.6,0.6h-3.2v-6.8H179.7z M179.7,68.9h1.9c0.3,0,0.5-0.1,0.7-0.3c0.2-0.2,0.3-0.4,0.3-0.7c0-0.3-0.1-0.5-0.3-0.7
			c-0.2-0.2-0.4-0.3-0.7-0.3h-1.9V68.9z"/>
		<path class="st0" d="M194.1,66.7c0,0.9-0.2,1.8-0.8,2.5c-0.6,0.8-1.5,1.1-2.5,1.1c-1,0-1.9-0.4-2.5-1.1c-0.4-0.6-0.7-1.2-0.7-1.9
			h-1.1v2.8h-1.2v-6.8h1.2v2.8h1.1c0.1-0.7,0.3-1.3,0.7-1.9c0.6-0.7,1.5-1.1,2.5-1.1c1,0,1.9,0.4,2.5,1.1
			C193.9,64.9,194.1,65.8,194.1,66.7z M192.8,66.7c0-0.6-0.1-1.3-0.5-1.8c-0.3-0.5-0.9-0.7-1.5-0.7c-0.6,0-1.2,0.2-1.5,0.7
			c-0.4,0.5-0.5,1.1-0.5,1.8c0,0.6,0.1,1.3,0.5,1.7c0.3,0.5,0.9,0.7,1.5,0.7c0.6,0,1.2-0.2,1.5-0.7
			C192.7,67.9,192.8,67.3,192.8,66.7z"/>
	</g>
	<g>
		<linearGradient id="SVGID_1_" gradientUnits="userSpaceOnUse" x1="4.4766" y1="47.5786" x2="59.1817" y2="81.5389">
			<stop  offset="0" style="stop-color:#2AFFEB"/>
			<stop  offset="0.4979" style="stop-color:#1DA0CC"/>
			<stop  offset="1" style="stop-color:#1040AD"/>
		</linearGradient>
		<path class="st1" d="M14.2,65.9c0,0,8.5,17.1,30.5,34.1c0,0,9.9-17.7,1.8-41.5c-3.7-10.8-10.3-18.7-10.3-18.7S37.3,56.7,14.2,65.9
			z"/>
		<linearGradient id="SVGID_2_" gradientUnits="userSpaceOnUse" x1="25.2621" y1="-11.7071" x2="55.4246" y2="68.6328">
			<stop  offset="0" style="stop-color:#2AFFEB"/>
			<stop  offset="0.2447" style="stop-color:#22C3D8"/>
			<stop  offset="0.5007" style="stop-color:#1A8BC5"/>
			<stop  offset="0.7212" style="stop-color:#1562B8"/>
			<stop  offset="0.8948" style="stop-color:#1149B0"/>
			<stop  offset="1" style="stop-color:#1040AD"/>
		</linearGradient>
		<path class="st2" d="M44.7,0C24,9,6,31.2,6,31.2s19.8,4.1,32.3,21.6c11.4,16,7.2,37.5,0.6,42.5c-0.1-0.1,1.5,1.3,3.1,2.6
			c1.3,1.1,2.7,2.1,2.7,2.1c0,0,35.9-16.6,35.8-50C80.5,15.9,45.7-0.4,44.7,0z"/>
	</g>
</g>
</svg>
